Coordinates
version=1
nRows=16
nColumns=36
inDegrees=yes

Units are S.I. units (second, meters, Newtons, ...)
If the header above contains a line with 'inDegrees', this indicates whether rotational values are in degrees (yes) or radians (no).

endheader
time	pelvis_tilt	pelvis_list	pelvis_rotation	pelvis_tx	pelvis_ty	pelvis_tz	hip_flexion_r	hip_adduction_r	hip_rotation_r	knee_angle_r	knee_angle_r_beta	ankle_angle_r	subtalar_angle_r	mtp_angle_r	hip_flexion_l	hip_adduction_l	hip_rotation_l	knee_angle_l	knee_angle_l_beta	ankle_angle_l	subtalar_angle_l	mtp_angle_l	lumbar_extension	lumbar_bending	lumbar_rotation	arm_flex_r	arm_add_r	arm_rot_r	elbow_flex_r	pro_sup_r	arm_flex_l	arm_add_l	arm_rot_l	elbow_flex_l	pro_sup_l
      0.32000000	     -2.38507232	     -4.17763925	      1.58027393	      0.37597179	      0.96955178	     -0.21568455	     -5.62238624	      8.19875036	     -1.26853424	      2.06166678	      0.03598287	      8.59664284	      1.73309416	     -6.39619421	     30.74905225	     -5.48189004	     -5.70736182	     35.48697775	      0.61936460	      1.81846524	     -4.57129022	     -6.39619421	     -5.34276777	     -0.94715289	      9.63055351	      9.61306432	     -9.60835211	      6.09036799	     66.65796886	    109.27768494	     -6.17149376	    -10.40468084	     -2.15412239	     49.47679108	    105.34045412
      0.33000000	     -2.21531203	     -4.12754410	      1.50074757	      0.38791969	      0.96822082	     -0.21534782	     -6.76109654	      8.25051979	     -1.05488349	      1.80918912	      0.03157631	      9.10901647	      1.48240197	     -6.42043676	     30.47107104	     -5.40155415	     -5.91215767	     31.45274493	      0.54895396	      1.74381848	     -3.31550721	     -6.42043676	     -5.43869366	     -1.24717820	      9.92204625	     10.09186313	     -9.94719925	      6.40933063	     66.97754680	    109.19806450	     -6.54202125	    -10.41907168	     -2.36645484	     49.68111299	    105.28678556
      0.34000000	     -2.45181072	     -4.20580630	      1.51547452	      0.39984637	      0.96603770	     -0.21524478	     -7.36680539	      8.43196868	     -0.91967941	      1.72366507	      0.03008363	      9.47835792	      1.30544181	     -6.43164542	     30.63811362	     -5.31085150	     -5.58891933	     27.44913940	      0.47907786	      1.87958674	     -2.28352924	     -6.43164542	     -5.00514575	     -1.40078548	     10.16860956	     10.32800222	    -10.33502192	      6.62616597	     67.35694491	    109.15512514	     -6.89956094	    -10.39913884	     -2.49914749	     49.77589487	    105.23496936
      0.35000000	     -2.49665828	     -4.20898006	      1.52337438	      0.41195897	      0.96402405	     -0.21521865	     -8.19019315	      8.52603409	     -0.80261652	      1.65619493	      0.02890605	      9.97632143	      1.01737170	     -6.44456288	     30.43538938	     -5.20683121	     -5.44175342	     23.33249740	      0.40722890	      1.97906699	     -1.06975534	     -6.44456288	     -4.81011731	     -1.65218371	     10.36640256	     10.59922410	    -10.70971961	      6.83487063	     67.68921710	    109.08557249	     -7.22999035	    -10.40623979	     -2.66471753	     49.84354109	    105.15573521
      0.36000000	     -2.52012416	     -4.21757968	      1.55194879	      0.42414100	      0.96191437	     -0.21529306	     -9.00927688	      8.61595408	     -0.66808124	      1.65513629	      0.02888758	     10.43926622	      0.72308375	     -6.45672541	     30.16742513	     -5.14702073	     -5.40214410	     19.34455954	      0.33762626	      2.16807408	      0.21834324	     -6.45672541	     -4.63689347	     -1.89024080	     10.51514254	     10.85263780	    -11.06004589	      7.02559369	     67.99065402	    109.05675157	     -7.51392923	    -10.40968884	     -2.85354215	     49.90278066	    105.09724176
      0.37000000	     -2.49267656	     -4.20555695	      1.56208792	      0.43646200	      0.95979920	     -0.21539697	     -9.85423681	      8.66878882	     -0.53177897	      1.71955917	      0.03001197	     10.88997837	      0.39224187	     -6.46971251	     29.80135967	     -5.11952740	     -5.49117004	     15.58580300	      0.27202358	      2.41246219	      1.65813056	     -6.46971251	     -4.52950250	     -2.17863720	     10.62389657	     11.09524622	    -11.41718228	      7.19497087	     68.24505391	    109.04945882	     -7.78975321	    -10.41069428	     -3.08732016	     49.92610897	    105.04117164
      0.38000000	     -2.26517662	     -4.14945227	      1.55276889	      0.44889822	      0.95792986	     -0.21550041	    -10.90263118	      8.65789975	     -0.34635043	      1.82307012	      0.03181858	     11.32590235	     -0.03312492	     -6.49270131	     29.23874297	     -5.14704810	     -6.04890235	     12.25490071	      0.21388837	      2.74555549	      3.57082273	     -6.49270131	     -4.67115704	     -2.52078429	     10.66680493	     11.42453069	    -11.72964841	      7.37624298	     68.41295265	    109.14178040	     -8.03992901	    -10.40789360	     -3.47222780	     49.96316088	    105.02876424
      0.39000000	     -2.36031602	     -4.14213327	      1.49527327	      0.46139812	      0.95560113	     -0.21567539	    -11.45788894	      8.65382362	     -0.17138230	      2.19775348	      0.03835803	     11.61613720	     -0.32853933	     -6.50790744	     29.08666939	     -5.19210161	     -6.23326751	      9.48681315	      0.16557612	      3.21934671	      5.01315989	     -6.50790744	     -4.37869285	     -2.82405582	     10.78603562	     11.54996890	    -12.06323822	      7.52708160	     68.56640375	    109.18388370	     -8.28562596	    -10.40131449	     -3.76294058	     49.88842941	    104.98755710
      0.40000000	     -2.27211809	     -4.07610815	      1.34981449	      0.47398341	      0.95361255	     -0.21574137	    -12.16748336	      8.55416271	      0.12087361	      2.66769332	      0.04656003	     11.83950990	     -0.76507257	     -6.56794277	     28.85621520	     -5.34392662	     -7.22341171	      7.52539655	      0.13134295	      4.10331435	      7.51292762	     -6.56794277	     -4.31940771	     -3.22143654	     10.81476448	     11.81721223	    -12.33997913	      7.73104975	     68.56520616	    109.54435865	     -8.52307778	    -10.34860533	     -4.33463676	     49.86132325	    105.12205927
      0.41000000	     -2.32076096	     -4.04475485	      1.19802312	      0.48661705	      0.95149375	     -0.21595732	    -12.57282094	      8.45013073	      0.25822720	      3.42724663	      0.05981674	     11.99498718	     -0.97961192	     -6.57530377	     28.77809642	     -5.42811083	     -7.17397572	      6.13195796	      0.10702286	      4.50117822	      7.95285768	     -6.57530377	     -4.07037706	     -3.57655255	     10.93596521	     11.87787188	    -12.60139489	      7.75620639	     68.64085642	    109.59480414	     -8.64224582	    -10.36368694	     -4.53110295	     49.63466347	    105.10864996
      0.42000000	     -2.24268125	     -3.93514280	      1.00206602	      0.49939284	      0.94970496	     -0.21621417	    -13.03382846	      8.22294970	      0.36116313	      4.35303561	      0.07597480	     12.29078123	     -1.23824124	     -6.58657680	     28.58847621	     -5.48737139	     -7.14711602	      5.43868180	      0.09492290	      4.89949567	      8.28270481	     -6.58657680	     -3.98647707	     -4.02944957	     11.07427530	     11.93292359	    -12.86184837	      7.75111035	     68.64629308	    109.65681757	     -8.64613820	    -10.33487486	     -4.87556576	     49.29985898	    105.08290851
      0.43000000	     -2.15056029	     -3.81688240	      0.77720289	      0.51230026	      0.94806834	     -0.21650260	    -13.42144018	      7.95501238	      0.53868316	      5.44957293	      0.09511299	     12.29560496	     -1.33919115	     -6.59238234	     28.44998288	     -5.56739816	     -6.99991990	      5.49877088	      0.09597166	      5.27532710	      8.19938449	     -6.59238234	     -3.94192602	     -4.51967888	     11.12791692	     11.98189377	    -13.02764836	      7.68556562	     68.63847581	    109.68145065	     -8.68242849	    -10.35796477	     -5.12811914	     49.00250444	    105.04953185
      0.44000000	     -2.08707417	     -3.66908830	      0.53610834	      0.52540693	      0.94650886	     -0.21694931	    -13.61059642	      7.61446892	      0.41875456	      6.86774522	      0.11986477	     12.59268387	     -1.42202015	     -6.60720767	     28.35847444	     -5.59880994	     -6.72614693	      6.14693306	      0.10728422	      5.82232018	      7.54800390	     -6.60720767	     -3.78972181	     -5.03330903	     11.22974250	     11.85295379	    -13.18854022	      7.57226223	     68.57411476	    109.73479644	     -8.62330123	    -10.21936243	     -5.66653614	     48.49111337	    104.99592948
      0.45000000	     -1.87624514	     -3.46606103	      0.30450862	      0.53871457	      0.94531124	     -0.21745218	    -13.94177005	      7.20387668	      0.49464622	      8.32336836	      0.14527018	     12.43342538	     -1.43403730	     -6.61326961	     28.07561123	     -5.55953389	     -6.41412309	      7.18461801	      0.12539524	      6.02256488	      6.97473756	     -6.61326961	     -3.86561172	     -5.64675604	     11.23251128	     11.78935304	    -13.29477958	      7.42261241	     68.47445310	    109.74116286	     -8.59206349	    -10.23438370	     -5.95657393	     48.13623581	    104.95129813
      0.46000000	     -1.86484899	     -3.24425621	      0.11371236	      0.55224607	      0.94390869	     -0.21829574	    -13.81730328	      6.70582435	     -0.02144255	     10.21847434	      0.17834602	     12.54954536	     -1.19693664	     -6.63091483	     28.01721081	     -5.38508282	     -5.84749988	      8.52016636	      0.14870496	      6.11568388	      5.47851936	     -6.63091483	     -3.59677298	     -6.21795718	     11.23630379	     11.44378808	    -13.33766131	      7.12000249	     68.41918332	    109.76952045	     -8.48220738	    -10.06811637	     -6.61374976	     47.49631359	    104.87537960
      0.47000000	     -1.61121804	     -2.95466526	     -0.05443640	      0.56591576	      0.94303299	     -0.21922514	    -13.86024362	      6.11387735	     -0.49866586	     12.27930591	      0.21431432	     12.22106501	     -1.06471661	     -6.64348159	     27.59636059	     -5.11041370	     -5.59041988	      9.80707387	      0.17116573	      5.81966944	      4.43595062	     -6.64348159	     -3.66881248	     -6.89639923	     11.13651112	     11.18763947	    -13.38910496	      6.81413564	     68.29062046	    109.76669439	     -8.36838709	    -10.03217493	     -7.04897950	     46.98891753	    104.81713468
